<?xml version="1.0" encoding="utf-8"?><!-- Uploaded to: SVG Repo, www.svgrepo.com, Generator: SVG Repo Mixer Tools -->
<svg width="800px" height="800px" viewBox="0 0 24 24" fill="none" xmlns="http://www.w3.org/2000/svg">
<path fill-rule="evenodd" clip-rule="evenodd" d="M5.16118 1C3.93844 1 3.00192 2.08747 3.1833 3.29668L5.75555 20.445C5.97584 21.9136 7.23738 23 8.72236 23H15.2776C16.7626 23 18.0241 21.9136 18.2444 20.445L20.8167 3.29668C20.9981 2.08747 20.0615 1 18.8388 1H5.16118ZM5.16118 3H18.8388L18.2388 7H5.76118L5.16118 3ZM6.06118 9L7.73343 20.1483C7.80686 20.6379 8.22737 21 8.72236 21H15.2776C15.7726 21 16.1931 20.6379 16.2666 20.1483L17.9388 9H6.06118Z" fill="#1976D2"/>
</svg>